HIERARCHY
ROOT Hips
{
	OFFSET 0.000000 0.000000 0.000000
	CHANNELS 6 Xposition Yposition Zposition Xrotation Yrotation Zrotation
	JOINT Chest
	{
		OFFSET 0.000000 9.585900 0.002600
		CHANNELS 3 Xrotation Yrotation Zrotation
		JOINT Chest2
		{
			OFFSET 0.000000 9.601200 -0.005300
			CHANNELS 3 Xrotation Yrotation Zrotation
			JOINT Chest3
			{
				OFFSET 0.000000 9.561800 0.000000
				CHANNELS 3 Xrotation Yrotation Zrotation
				JOINT Chest4
				{
					OFFSET 0.000000 9.552100 0.000000
					CHANNELS 3 Xrotation Yrotation Zrotation
					JOINT Neck
					{
						OFFSET 0.000000 14.453000 0.000000
						CHANNELS 3 Xrotation Yrotation Zrotation
						JOINT Head
						{
							OFFSET 0.000000 8.936500 -0.011300
							CHANNELS 3 Xrotation Yrotation Zrotation
							End Site
							{
								OFFSET 0.000000 0.000000 0.000000
							}
						}
					}
					JOINT RightCollar
					{
						OFFSET -2.921100 9.558500 0.000000
						CHANNELS 3 Xrotation Yrotation Zrotation
						JOINT RightShoulder
						{
							OFFSET -13.519700 0.000000 0.000000
							CHANNELS 3 Xrotation Yrotation Zrotation
							JOINT RightElbow
							{
								OFFSET 0.000000 -29.696600 0.000000
								CHANNELS 3 Xrotation Yrotation Zrotation
								JOINT RightWrist
								{
									OFFSET 0.000000 -24.004700 0.000000
									CHANNELS 3 Xrotation Yrotation Zrotation
									End Site
									{
										OFFSET 0.000000 0.000000 0.000000
									}
								}
							}
						}
					}
					JOINT LeftCollar
					{
						OFFSET 2.921100 9.558500 0.000000
						CHANNELS 3 Xrotation Yrotation Zrotation
						JOINT LeftShoulder
						{
							OFFSET 13.519700 0.000000 0.000000
							CHANNELS 3 Xrotation Yrotation Zrotation
							JOINT LeftElbow
							{
								OFFSET 0.000000 -29.696600 0.000000
								CHANNELS 3 Xrotation Yrotation Zrotation
								JOINT LeftWrist
								{
									OFFSET 0.000000 -24.004700 0.000000
									CHANNELS 3 Xrotation Yrotation Zrotation
									End Site
									{
										OFFSET 0.000000 0.000000 0.000000
									}
								}
							}
						}
					}
				}
			}
		}
	}
	JOINT RightHip
	{
		OFFSET -7.771700 -0.012900 -0.001300
		CHANNELS 3 Xrotation Yrotation Zrotation
		JOINT RightKnee
		{
			OFFSET 0.000000 -40.869801 0.001200
			CHANNELS 3 Xrotation Yrotation Zrotation
			JOINT RightAnkle
			{
				OFFSET 0.000000 -39.717899 0.002100
				CHANNELS 3 Xrotation Yrotation Zrotation
				JOINT RightToe
				{
					OFFSET 0.000000 -4.965400 11.033500
					CHANNELS 3 Xrotation Yrotation Zrotation
					End Site
					{
						OFFSET 0.000000 0.000000 0.000000
					}
				}
			}
		}
	}
	JOINT LeftHip
	{
		OFFSET 7.771700 -0.012900 -0.001300
		CHANNELS 3 Xrotation Yrotation Zrotation
		JOINT LeftKnee
		{
			OFFSET 0.000000 -40.869801 0.001200
			CHANNELS 3 Xrotation Yrotation Zrotation
			JOINT LeftAnkle
			{
				OFFSET 0.000000 -39.717899 0.002100
				CHANNELS 3 Xrotation Yrotation Zrotation
				JOINT LeftToe
				{
					OFFSET 0.000000 -4.965400 11.033500
					CHANNELS 3 Xrotation Yrotation Zrotation
					End Site
					{
						OFFSET 0.000000 0.000000 0.000000
					}
				}
			}
		}
	}
}
MOTION
Frames: 11
Frame Time: 0.032
0.0 0.0 0.0 -172.634780 26.161988 178.754534 8.323979 4.179640 1.171223 0.926635 0.332577 0.347215 2.683424 -0.154075 0.364625 7.436551 0.676583 0.546991 16.376371 0.383048 -0.458835 -8.174215 5.056428 -0.214067 1.548935 6.500762 -0.177465 -31.208511 21.461656 -17.892432 -69.867364 -20.710447 45.761212 1.618040 -0.054554 -24.124966 0.765714 -7.707545 -5.270543 -25.359096 4.324188 8.007154 -70.481111 14.341294 -60.162417 19.653415 -11.369047 -8.922293 -63.150344 -2.337338 2.048263 76.722832 -9.114975 1.296412 -10.572334 -3.863715 0.463044 1.080299 0.062136 0.172821 -64.289005 8.663782 15.922469 69.306913 14.212615 0.372740 -20.039666 -18.293805 -1.767940 0.224122 -0.045260 -0.364215
0.0 0.0 0.0 -172.659095 26.194091 178.782155 8.309195 4.184870 1.155482 0.930832 0.341174 0.368252 2.675862 -0.144245 0.384938 7.429094 0.688278 0.558215 16.374844 0.388347 -0.469380 -8.178507 5.060517 -0.220673 1.566355 6.514929 -0.168368 -31.225057 21.526135 -17.842073 -69.801665 -20.688703 45.853884 1.641790 0.037202 -24.104526 0.786515 -7.703999 -5.270138 -25.347734 4.311128 7.953556 -70.427262 14.308972 -60.295380 19.740073 -11.390228 -8.930067 -63.172426 -2.326741 2.040895 76.700128 -9.114086 1.281228 -10.574553 -3.860327 0.452303 1.081959 0.068395 0.162701 -64.314823 8.674019 15.956432 69.283759 14.226390 0.363919 -20.053405 -18.306246 -1.757914 0.227572 -0.039089 -0.364440
0.0 0.0 0.0 -172.657880 26.194347 178.802632 8.291639 4.180003 1.132378 0.929606 0.344101 0.376257 2.659668 -0.142260 0.398474 7.423316 0.687314 0.565862 16.367035 0.383579 -0.491100 -8.178857 5.062616 -0.230704 1.571272 6.520915 -0.177191 -31.220832 21.555227 -17.834105 -69.752235 -20.677640 45.914758 1.657672 0.057430 -24.091189 0.792836 -7.704256 -5.278861 -25.356348 4.295629 7.920573 -70.403548 14.306283 -60.353396 19.758458 -11.394291 -8.959055 -63.187774 -2.313854 2.018676 76.687021 -9.123155 1.265687 -10.587757 -3.857780 0.426173 1.079324 0.071008 0.147422 -64.330506 8.672938 15.976601 69.270529 14.217202 0.344273 -20.065479 -18.305395 -1.745989 0.226936 -0.036168 -0.369124
0.0 0.0 0.0 -172.670502 26.201014 178.817153 8.284575 4.181832 1.131488 0.937413 0.349963 0.371026 2.652069 -0.141523 0.394222 7.425633 0.685605 0.557178 16.367251 0.384764 -0.481591 -8.172858 5.062118 -0.224361 1.564866 6.523083 -0.165194 -31.236829 21.572090 -17.799864 -69.701404 -20.655399 45.935877 1.681556 0.084967 -24.096504 0.795142 -7.706672 -5.295872 -25.377515 4.267026 7.874535 -70.376657 14.280727 -60.371748 19.794754 -11.389872 -8.948649 -63.188095 -2.319406 2.010260 76.689706 -9.112417 1.263511 -10.590941 -3.855278 0.426717 1.084975 0.075547 0.154312 -64.339084 8.669476 15.981932 69.267926 14.229244 0.343623 -20.073837 -18.306126 -1.759600 0.233534 -0.031986 -0.369381
0.0 0.0 0.0 -172.692591 26.213349 178.833163 8.257198 4.171997 1.120028 0.925619 0.353768 0.386882 2.635861 -0.139020 0.416432 7.411272 0.684545 0.573937 16.354034 0.381655 -0.482839 -8.187284 5.058223 -0.218781 1.549046 6.526865 -0.141474 -31.288407 21.606106 -17.790165 -69.650827 -20.646280 46.002929 1.684622 0.096499 -24.079770 0.794162 -7.706099 -5.300422 -25.383756 4.236079 7.863159 -70.310664 14.269618 -60.436184 19.829518 -11.405845 -8.952192 -63.213257 -2.312041 2.006828 76.665923 -9.126964 1.260269 -10.608719 -3.855128 0.420969 1.071707 0.071992 0.153377 -64.363564 8.669227 16.018783 69.253255 14.233488 0.338769 -20.107264 -18.317753 -1.752768 0.218773 -0.035216 -0.367406
0.0 0.0 0.0 -172.692782 26.202935 178.841236 8.250156 4.171973 1.117659 0.928189 0.357033 0.393191 2.633341 -0.134236 0.422648 7.409335 0.690261 0.579748 16.344720 0.385456 -0.477422 -8.191241 5.056938 -0.217654 1.545966 6.529349 -0.142335 -31.296306 21.595626 -17.777551 -69.623083 -20.641090 46.036964 1.668831 0.122614 -24.058935 0.790303 -7.706294 -5.298676 -25.398697 4.230191 7.844237 -70.280195 14.266397 -60.453574 19.820135 -11.381256 -8.937985 -63.213223 -2.307681 2.006292 76.657740 -9.121671 1.258347 -10.614049 -3.849372 0.426122 1.066121 0.075341 0.156076 -64.363393 8.667829 16.020740 69.253856 14.240356 0.336634 -20.114156 -18.311544 -1.751006 0.213954 -0.031590 -0.363657
0.0 0.0 0.0 -172.731236 26.190943 178.839242 8.214535 4.156980 1.118883 0.914121 0.355991 0.393294 2.610023 -0.133814 0.421873 7.389856 0.689176 0.580668 16.321859 0.386221 -0.457774 -8.223538 5.042441 -0.221823 1.508199 6.527370 -0.132438 -31.360021 21.575659 -17.766615 -69.614381 -20.624870 46.062236 1.639075 0.158119 -24.050809 0.770781 -7.703762 -5.293643 -25.438911 4.228983 7.827813 -70.272128 14.294535 -60.434006 19.795659 -11.377114 -8.921614 -63.217752 -2.311666 2.021879 76.643397 -9.138401 1.267917 -10.631490 -3.846244 0.442725 1.035553 0.066211 0.156392 -64.374813 8.665808 16.024291 69.244390 14.237781 0.353655 -20.147265 -18.314910 -1.776766 0.182905 -0.040572 -0.369942
0.0 0.0 0.0 -172.743175 26.184944 178.828395 8.194891 4.148417 1.115362 0.918857 0.355564 0.381010 2.621513 -0.131233 0.407717 7.393634 0.689707 0.568424 16.327992 0.384709 -0.450858 -8.227000 5.034323 -0.229571 1.512332 6.524975 -0.147034 -31.342877 21.577607 -17.806032 -69.586227 -20.610943 46.072986 1.630547 0.182755 -24.047105 0.782020 -7.704791 -5.302853 -25.445277 4.208497 7.813777 -70.251173 14.262851 -60.430345 19.820635 -11.383575 -8.891130 -63.213558 -2.316331 2.030484 76.644223 -9.135122 1.265872 -10.630516 -3.845564 0.449525 1.033225 0.061805 0.152601 -64.366282 8.672272 16.009610 69.245359 14.245183 0.355153 -20.145733 -18.310448 -1.794207 0.182469 -0.044542 -0.379170
0.0 0.0 0.0 -172.706114 26.180969 178.834406 8.213098 4.130522 1.105554 0.935141 0.340071 0.395864 2.635801 -0.142157 0.432115 7.410773 0.681598 0.590553 16.342117 0.365536 -0.460643 -8.215306 5.009248 -0.230458 1.505521 6.501385 -0.144297 -31.370489 21.524622 -17.827192 -69.559814 -20.629434 46.070230 1.597392 0.191249 -24.036988 0.796525 -7.722553 -5.283444 -25.448614 4.172551 7.837359 -70.200227 14.238249 -60.420769 19.836287 -11.371761 -8.832554 -63.198859 -2.335245 2.022309 76.639995 -9.143526 1.245026 -10.616186 -3.860287 0.445952 1.046242 0.047652 0.150064 -64.346256 8.634893 16.017422 69.266403 14.234871 0.339772 -20.130837 -18.325812 -1.783161 0.195861 -0.058432 -0.373655
0.0 0.0 0.0 -172.759335 26.194307 178.850744 8.172799 4.120182 1.106673 0.913291 0.333364 0.384299 2.601764 -0.146725 0.422248 7.381267 0.678367 0.583969 16.316031 0.352090 -0.453920 -8.247790 5.000557 -0.224139 1.462491 6.493027 -0.143479 -31.437527 21.530872 -17.857405 -69.549508 -20.617358 46.078150 1.551822 0.244211 -24.047821 0.768126 -7.732780 -5.300960 -25.522061 4.135966 7.838689 -70.178213 14.229818 -60.391884 19.847287 -11.378313 -8.768844 -63.221611 -2.336400 2.030765 76.615700 -9.154493 1.244711 -10.636070 -3.864075 0.453244 1.023635 0.044955 0.154037 -64.382989 8.641039 16.023573 69.243966 14.231976 0.355116 -20.167228 -18.336432 -1.806014 0.173901 -0.061189 -0.376360
0.0 0.0 0.0 -172.798240 26.201710 178.847561 8.134915 4.101995 1.097020 0.902744 0.325097 0.389131 2.583019 -0.151627 0.432340 7.360235 0.678007 0.587213 16.298619 0.341936 -0.441982 -8.281690 4.979636 -0.235983 1.451425 6.487357 -0.139662 -31.465548 21.526745 -17.864783 -69.503650 -20.604259 46.107923 1.514399 0.316465 -24.026729 0.764980 -7.743208 -5.288334 -25.567582 4.096129 7.808096 -70.154840 14.220417 -60.377301 19.852344 -11.390803 -8.691096 -63.232129 -2.342500 2.051389 76.583769 -9.172452 1.245299 -10.648414 -3.874514 0.470835 0.999440 0.028356 0.155821 -64.396622 8.646381 16.037863 69.226699 14.232018 0.367141 -20.197148 -18.354064 -1.815089 0.150939 -0.076815 -0.377360
